<mxfile host="Electron" modified="2025-10-23T17:31:04.624Z" agent="Mozilla/5.0 (Windows NT 10.0; Win64; x64) AppleWebKit/537.36 (KHTML, like Gecko) draw.io/24.2.5 Chrome/120.0.6099.109 Electron/28.1.0 Safari/537.36" etag="r2WsmzYAzwn07h965C4K" version="24.2.5" type="device" pages="3">
  <diagram name="Анализ" id="zs_qWqwcw1lIPgZTlxDj">
    <mxGraphModel dx="1434" dy="844" grid="1" gridSize="10" guides="1" tooltips="1" connect="1" arrows="1" fold="1" page="1" pageScale="1" pageWidth="827" pageHeight="1169" math="0" shadow="0">
      <root>
        <mxCell id="0" />
        <mxCell id="1" parent="0" />
        <mxCell id="Cp5URhswG1FKaNstPvM2-4" style="edgeStyle=orthogonalEdgeStyle;rounded=0;orthogonalLoop=1;jettySize=auto;html=1;" edge="1" parent="1" source="Cp5URhswG1FKaNstPvM2-1" target="Cp5URhswG1FKaNstPvM2-2">
          <mxGeometry relative="1" as="geometry" />
        </mxCell>
        <mxCell id="Cp5URhswG1FKaNstPvM2-6" value="Осмысление" style="edgeLabel;html=1;align=center;verticalAlign=middle;resizable=0;points=[];" vertex="1" connectable="0" parent="Cp5URhswG1FKaNstPvM2-4">
          <mxGeometry x="-0.15" relative="1" as="geometry">
            <mxPoint x="5" y="-10" as="offset" />
          </mxGeometry>
        </mxCell>
        <mxCell id="Cp5URhswG1FKaNstPvM2-1" value="Первое восприятие явления" style="rounded=0;whiteSpace=wrap;html=1;" vertex="1" parent="1">
          <mxGeometry x="20" y="330" width="120" height="60" as="geometry" />
        </mxCell>
        <mxCell id="Cp5URhswG1FKaNstPvM2-5" style="edgeStyle=orthogonalEdgeStyle;rounded=0;orthogonalLoop=1;jettySize=auto;html=1;" edge="1" parent="1" source="Cp5URhswG1FKaNstPvM2-2" target="Cp5URhswG1FKaNstPvM2-3">
          <mxGeometry relative="1" as="geometry" />
        </mxCell>
        <mxCell id="Cp5URhswG1FKaNstPvM2-7" value="Осмысление" style="edgeLabel;html=1;align=center;verticalAlign=middle;resizable=0;points=[];" vertex="1" connectable="0" parent="Cp5URhswG1FKaNstPvM2-5">
          <mxGeometry x="-0.08" y="4" relative="1" as="geometry">
            <mxPoint y="-6" as="offset" />
          </mxGeometry>
        </mxCell>
        <mxCell id="Cp5URhswG1FKaNstPvM2-2" value="Второе восприятие явления" style="rounded=0;whiteSpace=wrap;html=1;" vertex="1" parent="1">
          <mxGeometry x="220" y="330" width="120" height="60" as="geometry" />
        </mxCell>
        <mxCell id="Cp5URhswG1FKaNstPvM2-9" style="edgeStyle=orthogonalEdgeStyle;rounded=0;orthogonalLoop=1;jettySize=auto;html=1;" edge="1" parent="1" source="Cp5URhswG1FKaNstPvM2-3">
          <mxGeometry relative="1" as="geometry">
            <mxPoint x="570" y="360" as="targetPoint" />
          </mxGeometry>
        </mxCell>
        <mxCell id="Cp5URhswG1FKaNstPvM2-3" value="Третье восприятие явления" style="rounded=0;whiteSpace=wrap;html=1;" vertex="1" parent="1">
          <mxGeometry x="420" y="330" width="120" height="60" as="geometry" />
        </mxCell>
        <mxCell id="Cp5URhswG1FKaNstPvM2-8" value="Окончательное суждение" style="rounded=0;whiteSpace=wrap;html=1;" vertex="1" parent="1">
          <mxGeometry x="670" y="330" width="120" height="60" as="geometry" />
        </mxCell>
        <mxCell id="Cp5URhswG1FKaNstPvM2-11" style="edgeStyle=orthogonalEdgeStyle;rounded=0;orthogonalLoop=1;jettySize=auto;html=1;" edge="1" parent="1" source="Cp5URhswG1FKaNstPvM2-10" target="Cp5URhswG1FKaNstPvM2-8">
          <mxGeometry relative="1" as="geometry" />
        </mxCell>
        <mxCell id="Cp5URhswG1FKaNstPvM2-10" value="&lt;font style=&quot;font-size: 39px;&quot;&gt;...&lt;/font&gt;" style="text;html=1;align=center;verticalAlign=middle;resizable=0;points=[];autosize=1;strokeColor=none;fillColor=none;" vertex="1" parent="1">
          <mxGeometry x="570" y="330" width="60" height="60" as="geometry" />
        </mxCell>
        <mxCell id="Cp5URhswG1FKaNstPvM2-12" value="" style="shape=curlyBracket;whiteSpace=wrap;html=1;rounded=1;labelPosition=left;verticalLabelPosition=middle;align=right;verticalAlign=middle;rotation=-90;" vertex="1" parent="1">
          <mxGeometry x="395" y="25" width="20" height="770" as="geometry" />
        </mxCell>
        <mxCell id="Cp5URhswG1FKaNstPvM2-13" value="Анализ" style="rounded=0;whiteSpace=wrap;html=1;" vertex="1" parent="1">
          <mxGeometry x="367.5" y="430" width="75" height="40" as="geometry" />
        </mxCell>
      </root>
    </mxGraphModel>
  </diagram>
  <diagram id="CE9x7eWhOpi95zwZErmg" name="Классическая схема исследования">
    <mxGraphModel dx="1434" dy="844" grid="1" gridSize="10" guides="1" tooltips="1" connect="1" arrows="1" fold="1" page="1" pageScale="1" pageWidth="827" pageHeight="1169" math="0" shadow="0">
      <root>
        <mxCell id="0" />
        <mxCell id="1" parent="0" />
        <mxCell id="KUCN-wefv4IzlSxnka83-5" value="" style="edgeStyle=orthogonalEdgeStyle;rounded=0;orthogonalLoop=1;jettySize=auto;html=1;" edge="1" parent="1" source="KUCN-wefv4IzlSxnka83-1" target="KUCN-wefv4IzlSxnka83-2">
          <mxGeometry relative="1" as="geometry" />
        </mxCell>
        <mxCell id="KUCN-wefv4IzlSxnka83-1" value="Разбиение объекта на части" style="rounded=0;whiteSpace=wrap;html=1;" vertex="1" parent="1">
          <mxGeometry x="130" y="130" width="170" height="60" as="geometry" />
        </mxCell>
        <mxCell id="KUCN-wefv4IzlSxnka83-6" value="" style="edgeStyle=orthogonalEdgeStyle;rounded=0;orthogonalLoop=1;jettySize=auto;html=1;" edge="1" parent="1" source="KUCN-wefv4IzlSxnka83-2" target="KUCN-wefv4IzlSxnka83-3">
          <mxGeometry relative="1" as="geometry" />
        </mxCell>
        <mxCell id="KUCN-wefv4IzlSxnka83-2" value="Формулировка цели исследования для каждой части" style="rounded=0;whiteSpace=wrap;html=1;" vertex="1" parent="1">
          <mxGeometry x="130" y="220" width="170" height="60" as="geometry" />
        </mxCell>
        <mxCell id="KUCN-wefv4IzlSxnka83-7" value="" style="edgeStyle=orthogonalEdgeStyle;rounded=0;orthogonalLoop=1;jettySize=auto;html=1;" edge="1" parent="1" source="KUCN-wefv4IzlSxnka83-3" target="KUCN-wefv4IzlSxnka83-4">
          <mxGeometry relative="1" as="geometry" />
        </mxCell>
        <mxCell id="KUCN-wefv4IzlSxnka83-3" value="Исследование каждой части в соответстии с целью исследования каждой части" style="rounded=0;whiteSpace=wrap;html=1;" vertex="1" parent="1">
          <mxGeometry x="130" y="310" width="170" height="70" as="geometry" />
        </mxCell>
        <mxCell id="KUCN-wefv4IzlSxnka83-4" value="Формирование описания функционирования объекта исследования" style="rounded=0;whiteSpace=wrap;html=1;" vertex="1" parent="1">
          <mxGeometry x="130" y="410" width="170" height="70" as="geometry" />
        </mxCell>
      </root>
    </mxGraphModel>
  </diagram>
  <diagram id="RdKQep2DGSUkdpjHW1nE" name="Научное исследование">
    <mxGraphModel dx="712" dy="835" grid="1" gridSize="10" guides="1" tooltips="1" connect="1" arrows="1" fold="1" page="1" pageScale="1" pageWidth="827" pageHeight="1169" math="0" shadow="0">
      <root>
        <mxCell id="0" />
        <mxCell id="1" parent="0" />
        <mxCell id="hmrOcHQCAlsO7Ghumn6t-6" style="rounded=0;orthogonalLoop=1;jettySize=auto;html=1;" edge="1" parent="1" source="hmrOcHQCAlsO7Ghumn6t-1" target="hmrOcHQCAlsO7Ghumn6t-2">
          <mxGeometry relative="1" as="geometry" />
        </mxCell>
        <mxCell id="hmrOcHQCAlsO7Ghumn6t-8" style="edgeStyle=none;rounded=0;orthogonalLoop=1;jettySize=auto;html=1;strokeColor=default;align=center;verticalAlign=middle;fontFamily=Helvetica;fontSize=11;fontColor=default;labelBackgroundColor=default;endArrow=classic;" edge="1" parent="1" source="hmrOcHQCAlsO7Ghumn6t-1" target="hmrOcHQCAlsO7Ghumn6t-3">
          <mxGeometry relative="1" as="geometry" />
        </mxCell>
        <mxCell id="hmrOcHQCAlsO7Ghumn6t-1" value="Научное исследование - решение 2 групп вопросов" style="rounded=0;whiteSpace=wrap;html=1;" vertex="1" parent="1">
          <mxGeometry x="240" y="160" width="260" height="40" as="geometry" />
        </mxCell>
        <mxCell id="hmrOcHQCAlsO7Ghumn6t-9" style="edgeStyle=none;rounded=0;orthogonalLoop=1;jettySize=auto;html=1;strokeColor=default;align=center;verticalAlign=middle;fontFamily=Helvetica;fontSize=11;fontColor=default;labelBackgroundColor=default;endArrow=classic;" edge="1" parent="1" source="hmrOcHQCAlsO7Ghumn6t-2" target="hmrOcHQCAlsO7Ghumn6t-4">
          <mxGeometry relative="1" as="geometry" />
        </mxCell>
        <mxCell id="hmrOcHQCAlsO7Ghumn6t-10" style="edgeStyle=none;rounded=0;orthogonalLoop=1;jettySize=auto;html=1;strokeColor=default;align=center;verticalAlign=middle;fontFamily=Helvetica;fontSize=11;fontColor=default;labelBackgroundColor=default;endArrow=classic;" edge="1" parent="1" source="hmrOcHQCAlsO7Ghumn6t-2" target="hmrOcHQCAlsO7Ghumn6t-5">
          <mxGeometry relative="1" as="geometry" />
        </mxCell>
        <mxCell id="hmrOcHQCAlsO7Ghumn6t-2" value="Как получают знания?" style="rounded=0;whiteSpace=wrap;html=1;" vertex="1" parent="1">
          <mxGeometry x="170" y="240" width="150" height="40" as="geometry" />
        </mxCell>
        <mxCell id="hmrOcHQCAlsO7Ghumn6t-3" value="Как следует использовать полученные знания?" style="rounded=0;whiteSpace=wrap;html=1;" vertex="1" parent="1">
          <mxGeometry x="420" y="240" width="150" height="40" as="geometry" />
        </mxCell>
        <mxCell id="hmrOcHQCAlsO7Ghumn6t-4" value="Как систематизировать известные знания об объекте?" style="rounded=0;whiteSpace=wrap;html=1;" vertex="1" parent="1">
          <mxGeometry x="70" y="320" width="150" height="50" as="geometry" />
        </mxCell>
        <mxCell id="hmrOcHQCAlsO7Ghumn6t-5" value="Как разработать метод получения знаний об объекте исследования?" style="rounded=0;whiteSpace=wrap;html=1;" vertex="1" parent="1">
          <mxGeometry x="260" y="320" width="150" height="50" as="geometry" />
        </mxCell>
      </root>
    </mxGraphModel>
  </diagram>
</mxfile>
